<svg width="46" height="30" viewBox="0 0 46 30" fill="none" xmlns="http://www.w3.org/2000/svg">
<path d="M45.4692 13.0134C40.9662 5.21323 32.5681 0 23 0C13.4279 0 5.0316 5.2169 0.530794 13.0134C0.183278 13.6154 0 14.3013 0 15C0 15.6988 0.183278 16.3847 0.530794 16.9867C5.03375 24.7868 13.4319 30 23 30C32.5721 30 40.9684 24.7831 45.4692 16.9866C45.8167 16.3847 46 15.6987 46 15C46 14.3013 45.8167 13.6153 45.4692 13.0134V13.0134ZM23 26.087C16.9975 26.087 12.1389 21.1282 12.1389 15C12.1389 8.87266 16.9965 3.91304 23 3.91304C29.0025 3.91304 33.8611 8.87168 33.8611 15C33.8611 21.1273 29.0035 26.087 23 26.087ZM31.3055 15C31.3055 19.6824 27.5871 23.4783 23 23.4783C18.4129 23.4783 14.6945 19.6824 14.6945 15C14.6945 13.5564 15.0483 12.1974 15.6716 11.0076L15.6716 11.0102C15.6716 12.9383 17.2027 14.5013 19.0915 14.5013C20.9803 14.5013 22.5115 12.9382 22.5115 11.0102C22.5115 9.08217 20.9803 7.51916 19.0915 7.51916L19.089 7.51924C20.2545 6.88296 21.5858 6.52174 23 6.52174C27.5871 6.52174 31.3055 10.3176 31.3055 15Z" fill="white"/>
</svg>
