<svg width="449" height="588" viewBox="0 0 449 588" fill="none" xmlns="http://www.w3.org/2000/svg">
<path fill-rule="evenodd" clip-rule="evenodd" d="M356.715 25.3521C414.954 -8.43255 487.371 -8.58181 545.705 25.6914C603.896 59.8815 639.156 122.76 637.971 190.232L636.58 269.473C634.595 382.497 573.614 486.247 475.819 542.979L471.246 545.632C373.329 602.435 252.4 602.1 154.8 544.755C57.2044 487.414 -1.93841 381.979 0.048535 268.808L2.80606 111.748L110.398 113.636L107.641 270.696C106.336 345.046 145.187 414.318 209.32 451.999C273.448 489.677 352.904 489.897 417.24 452.575L421.813 449.922C487.01 412.101 527.664 342.934 528.987 267.584L530.379 188.344C530.882 159.682 515.904 132.972 491.184 118.448C466.606 104.007 435.663 103.94 410.721 118.409C386.135 132.672 370.715 158.866 370.222 186.965L368.844 265.483L261.251 263.595L262.63 185.077C263.79 118.988 299.805 58.3665 356.715 25.3521Z" fill="#15F42C" fill-opacity="0.2"/>
</svg>
