<svg width="141" height="130" viewBox="0 0 141 130" fill="none" xmlns="http://www.w3.org/2000/svg">
<path fill-rule="evenodd" clip-rule="evenodd" d="M78.8352 5.60505C91.706 -1.86434 107.711 -1.89734 120.602 5.68007C133.463 13.2391 141.255 27.1409 140.994 42.0582L140.686 59.5773C140.248 84.5657 126.77 107.504 105.157 120.046C105.157 120.046 105.157 120.046 105.157 120.046L104.147 120.633L98.1791 110.346L104.147 120.633C82.5068 133.191 55.7812 133.117 34.2113 120.439C12.6423 107.762 -0.428394 84.4511 0.0107264 59.4303L0.620148 24.7061L24.3984 25.1236L23.789 59.8478C23.5005 76.2857 32.0869 91.6009 46.2604 99.9317C60.4329 108.262 77.9929 108.311 92.2113 100.059C92.2113 100.059 92.2114 100.059 92.2114 100.059L93.222 99.4726L93.222 99.4725C107.631 91.1107 116.616 75.8188 116.908 59.1598L117.215 41.6407C117.327 35.3039 114.016 29.3985 108.553 26.1875C103.121 22.9948 96.2829 22.9799 90.7706 26.1789C85.3371 29.3321 81.9293 35.1234 81.8203 41.3358L81.5156 58.6953L57.7373 58.2778L58.042 40.9183C58.2984 26.3069 66.2579 12.9042 78.8352 5.60505Z" fill="#15F42C"/>
</svg>
