<svg width="338" height="77" viewBox="0 0 338 77" fill="none" xmlns="http://www.w3.org/2000/svg">
<path d="M123.01 27.568V56.24C123.01 62.5547 121.367 67.248 118.082 70.32C114.796 73.392 109.996 74.928 103.682 74.928C100.354 74.928 97.1963 74.5227 94.2096 73.712C91.2229 72.9013 88.7483 71.728 86.7856 70.192L90.7536 63.024C92.2043 64.2187 94.0389 65.1573 96.2576 65.84C98.4763 66.5653 100.695 66.928 102.914 66.928C106.37 66.928 108.908 66.1387 110.53 64.56C112.194 63.024 113.026 60.6773 113.026 57.52V56.048C110.423 58.9067 106.796 60.336 102.146 60.336C98.9883 60.336 96.0869 59.6533 93.4416 58.288C90.8389 56.88 88.7696 54.9173 87.2336 52.4C85.6976 49.8827 84.9296 46.9813 84.9296 43.696C84.9296 40.4107 85.6976 37.5093 87.2336 34.992C88.7696 32.4747 90.8389 30.5333 93.4416 29.168C96.0869 27.76 98.9883 27.056 102.146 27.056C107.138 27.056 110.935 28.6987 113.538 31.984V27.568H123.01ZM104.13 52.144C106.775 52.144 108.93 51.376 110.594 49.84C112.3 48.2613 113.154 46.2133 113.154 43.696C113.154 41.1787 112.3 39.152 110.594 37.616C108.93 36.0373 106.775 35.248 104.13 35.248C101.484 35.248 99.3083 36.0373 97.6016 37.616C95.8949 39.152 95.0416 41.1787 95.0416 43.696C95.0416 46.2133 95.8949 48.2613 97.6016 49.84C99.3083 51.376 101.484 52.144 104.13 52.144ZM143.246 28.336H152.078V36.016H143.502V62H133.518V36.016H128.206V28.336H133.518V26.8C133.518 22.8747 134.67 19.76 136.974 17.456C139.321 15.152 142.606 14 146.83 14C148.323 14 149.731 14.1707 151.054 14.512C152.419 14.8107 153.55 15.2587 154.446 15.856L151.822 23.088C150.67 22.2773 149.326 21.872 147.79 21.872C144.761 21.872 143.246 23.536 143.246 26.864V28.336ZM172.999 62.512C169.372 62.512 166.108 61.7653 163.207 60.272C160.348 58.736 158.108 56.624 156.487 53.936C154.865 51.248 154.055 48.1973 154.055 44.784C154.055 41.3707 154.865 38.32 156.487 35.632C158.108 32.944 160.348 30.8533 163.207 29.36C166.108 27.824 169.372 27.056 172.999 27.056C176.625 27.056 179.868 27.824 182.727 29.36C185.585 30.8533 187.825 32.944 189.447 35.632C191.068 38.32 191.879 41.3707 191.879 44.784C191.879 48.1973 191.068 51.248 189.447 53.936C187.825 56.624 185.585 58.736 182.727 60.272C179.868 61.7653 176.625 62.512 172.999 62.512ZM172.999 54.32C175.559 54.32 177.649 53.4667 179.271 51.76C180.935 50.0107 181.767 47.6853 181.767 44.784C181.767 41.8827 180.935 39.5787 179.271 37.872C177.649 36.1227 175.559 35.248 172.999 35.248C170.439 35.248 168.327 36.1227 166.663 37.872C164.999 39.5787 164.167 41.8827 164.167 44.784C164.167 47.6853 164.999 50.0107 166.663 51.76C168.327 53.4667 170.439 54.32 172.999 54.32ZM198.552 14.512H208.536V62H198.552V14.512ZM217.802 27.568H227.786V62H217.802V27.568ZM222.794 22.768C220.959 22.768 219.466 22.2347 218.314 21.168C217.162 20.1013 216.586 18.7787 216.586 17.2C216.586 15.6213 217.162 14.2987 218.314 13.232C219.466 12.1653 220.959 11.632 222.794 11.632C224.629 11.632 226.122 12.144 227.274 13.168C228.426 14.192 229.002 15.472 229.002 17.008C229.002 18.672 228.426 20.0587 227.274 21.168C226.122 22.2347 224.629 22.768 222.794 22.768ZM271.228 27.568L256.7 62H246.396L231.932 27.568H242.236L251.772 50.992L261.628 27.568H271.228ZM308.093 44.912C308.093 45.04 308.029 45.936 307.901 47.6H281.853C282.322 49.7333 283.431 51.4187 285.181 52.656C286.93 53.8933 289.106 54.512 291.709 54.512C293.501 54.512 295.079 54.256 296.445 53.744C297.853 53.1893 299.154 52.336 300.349 51.184L305.661 56.944C302.418 60.656 297.682 62.512 291.453 62.512C287.57 62.512 284.135 61.7653 281.149 60.272C278.162 58.736 275.858 56.624 274.237 53.936C272.615 51.248 271.805 48.1973 271.805 44.784C271.805 41.4133 272.594 38.384 274.173 35.696C275.794 32.9653 277.991 30.8533 280.765 29.36C283.581 27.824 286.717 27.056 290.173 27.056C293.543 27.056 296.594 27.7813 299.325 29.232C302.055 30.6827 304.189 32.7733 305.725 35.504C307.303 38.192 308.093 41.328 308.093 44.912ZM290.237 34.608C287.975 34.608 286.077 35.248 284.541 36.528C283.005 37.808 282.066 39.5573 281.725 41.776H298.685C298.343 39.6 297.405 37.872 295.869 36.592C294.333 35.2693 292.455 34.608 290.237 34.608ZM324.276 32.112C325.47 30.448 327.07 29.1893 329.076 28.336C331.124 27.4827 333.47 27.056 336.116 27.056V36.272C335.006 36.1867 334.26 36.144 333.876 36.144C331.017 36.144 328.777 36.9547 327.156 38.576C325.534 40.1547 324.724 42.544 324.724 45.744V62H314.74V27.568H324.276V32.112Z" fill="white"/>
<path fill-rule="evenodd" clip-rule="evenodd" d="M39.1381 14.8025C45.5278 11.0678 53.4734 11.0513 59.8735 14.84C66.2582 18.6196 70.1268 25.5704 69.9968 33.0291L69.8442 41.7886C69.6265 54.2829 62.9357 65.7518 52.2058 72.0232L51.7041 72.3165C40.9609 78.5956 27.6928 78.5586 16.9843 72.2196C6.27634 65.8808 -0.212678 54.2256 0.00532516 41.7152L0.307875 24.353L12.1127 24.5618L11.8101 41.9239C11.6669 50.1428 15.9297 57.8005 22.9662 61.9659C30.0022 66.1309 38.7199 66.1553 45.7787 62.0296L46.2804 61.7363C53.4337 57.5554 57.8942 49.9094 58.0394 41.5799L58.192 32.8204C58.2472 29.652 56.6039 26.6993 53.8917 25.0937C51.195 23.4974 47.8 23.49 45.0634 25.0895C42.3659 26.6661 40.6741 29.5617 40.62 32.6679L40.4687 41.3476L28.6639 41.1389L28.8152 32.4591C28.9425 25.1534 32.894 18.4521 39.1381 14.8025Z" fill="#15F42C"/>
</svg>
