<svg width="190" height="41" viewBox="0 0 190 41" fill="none" xmlns="http://www.w3.org/2000/svg">
<path d="M73.7381 14.9016V30.4C73.7381 33.8133 72.8489 36.3503 71.0705 38.0108C69.2921 39.6713 66.6939 40.5016 63.2757 40.5016C61.4742 40.5016 59.7651 40.2825 58.1484 39.8443C56.5316 39.4061 55.1921 38.7719 54.1297 37.9416L56.2776 34.067C57.0629 34.7128 58.056 35.2202 59.257 35.5892C60.458 35.9812 61.6589 36.1773 62.8599 36.1773C64.7307 36.1773 66.1049 35.7506 66.9825 34.8973C67.8833 34.067 68.3337 32.7985 68.3337 31.0919V30.2962C66.9248 31.8414 64.9617 32.614 62.4442 32.614C60.7351 32.614 59.1646 32.245 57.7326 31.507C56.3238 30.7459 55.2036 29.685 54.3722 28.3243C53.5407 26.9636 53.125 25.3953 53.125 23.6195C53.125 21.8436 53.5407 20.2753 54.3722 18.9146C55.2036 17.5539 56.3238 16.5045 57.7326 15.7665C59.1646 15.0054 60.7351 14.6249 62.4442 14.6249C65.1464 14.6249 67.202 15.5128 68.6108 17.2886V14.9016H73.7381ZM63.5182 28.1859C64.9501 28.1859 66.1165 27.7708 67.0172 26.9405C67.941 26.0872 68.4029 24.9802 68.4029 23.6195C68.4029 22.2587 67.941 21.1632 67.0172 20.333C66.1165 19.4796 64.9501 19.053 63.5182 19.053C62.0862 19.053 60.9083 19.4796 59.9845 20.333C59.0607 21.1632 58.5987 22.2587 58.5987 23.6195C58.5987 24.9802 59.0607 26.0872 59.9845 26.9405C60.9083 27.7708 62.0862 28.1859 63.5182 28.1859Z" fill="white"/>
<path d="M84.6923 15.3168H89.4732V19.4681H84.8309V33.5135H79.4265V19.4681H76.551V15.3168H79.4265V14.4865C79.4265 12.3647 80.0501 10.6811 81.2972 9.43567C82.5675 8.19027 84.3459 7.56757 86.6324 7.56757C87.4407 7.56757 88.2029 7.65982 88.9189 7.84432C89.658 8.00577 90.27 8.24793 90.755 8.57081L89.3346 12.48C88.711 12.0418 87.9835 11.8227 87.152 11.8227C85.5122 11.8227 84.6923 12.7222 84.6923 14.5211V15.3168Z" fill="white"/>
<path d="M100.798 33.7903C98.8345 33.7903 97.0677 33.3867 95.4972 32.5794C93.9497 31.7492 92.7372 30.6076 91.8596 29.1546C90.9819 27.7016 90.5431 26.0526 90.5431 24.2076C90.5431 22.3625 90.9819 20.7135 91.8596 19.2605C92.7372 17.8076 93.9497 16.6775 95.4972 15.8703C97.0677 15.04 98.8345 14.6249 100.798 14.6249C102.761 14.6249 104.516 15.04 106.064 15.8703C107.611 16.6775 108.824 17.8076 109.701 19.2605C110.579 20.7135 111.018 22.3625 111.018 24.2076C111.018 26.0526 110.579 27.7016 109.701 29.1546C108.824 30.6076 107.611 31.7492 106.064 32.5794C104.516 33.3867 102.761 33.7903 100.798 33.7903ZM100.798 29.3621C102.183 29.3621 103.315 28.9009 104.193 27.9784C105.094 27.0328 105.544 25.7758 105.544 24.2076C105.544 22.6393 105.094 21.3939 104.193 20.4713C103.315 19.5258 102.183 19.053 100.798 19.053C99.4119 19.053 98.2687 19.5258 97.3679 20.4713C96.4672 21.3939 96.0168 22.6393 96.0168 24.2076C96.0168 25.7758 96.4672 27.0328 97.3679 27.9784C98.2687 28.9009 99.4119 29.3621 100.798 29.3621Z" fill="white"/>
<path d="M114.63 7.84432H120.034V33.5135H114.63V7.84432Z" fill="white"/>
<path d="M125.05 14.9016H130.455V33.5135H125.05V14.9016ZM127.753 12.307C126.759 12.307 125.951 12.0187 125.327 11.4422C124.704 10.8656 124.392 10.1506 124.392 9.2973C124.392 8.44396 124.704 7.72901 125.327 7.15243C125.951 6.57586 126.759 6.28757 127.753 6.28757C128.746 6.28757 129.554 6.56432 130.178 7.11784C130.801 7.67135 131.113 8.36324 131.113 9.19351C131.113 10.093 130.801 10.8425 130.178 11.4422C129.554 12.0187 128.746 12.307 127.753 12.307Z" fill="white"/>
<path d="M153.97 14.9016L146.106 33.5135H140.529L132.699 14.9016H138.277L143.439 27.5632L148.774 14.9016H153.97Z" fill="white"/>
<path d="M173.925 24.2767C173.925 24.3459 173.891 24.8303 173.822 25.7297H159.721C159.976 26.8829 160.576 27.7939 161.523 28.4627C162.47 29.1315 163.648 29.4659 165.057 29.4659C166.027 29.4659 166.881 29.3276 167.62 29.0508C168.382 28.751 169.087 28.2897 169.734 27.667L172.609 30.7805C170.854 32.787 168.29 33.7903 164.918 33.7903C162.816 33.7903 160.957 33.3867 159.34 32.5794C157.724 31.7492 156.477 30.6076 155.599 29.1546C154.721 27.7016 154.282 26.0526 154.282 24.2076C154.282 22.3856 154.71 20.7481 155.564 19.2951C156.442 17.8191 157.631 16.6775 159.133 15.8703C160.657 15.04 162.354 14.6249 164.225 14.6249C166.05 14.6249 167.701 15.0169 169.179 15.8011C170.657 16.5852 171.812 17.7153 172.644 19.1913C173.498 20.6443 173.925 22.3395 173.925 24.2767ZM164.26 18.707C163.036 18.707 162.008 19.053 161.177 19.7449C160.345 20.4367 159.837 21.3823 159.652 22.5816H168.833C168.648 21.4054 168.14 20.4713 167.308 19.7795C166.477 19.0645 165.461 18.707 164.26 18.707Z" fill="white"/>
<path d="M182.685 17.3578C183.332 16.4584 184.198 15.778 185.284 15.3168C186.392 14.8555 187.663 14.6249 189.095 14.6249V19.6065C188.494 19.5604 188.09 19.5373 187.882 19.5373C186.335 19.5373 185.122 19.9755 184.244 20.8519C183.367 21.7052 182.928 22.9967 182.928 24.7265V33.5135H177.524V14.9016H182.685V17.3578Z" fill="white"/>
<path d="M32.5684 5.94598V5.94598C37.3019 5.94598 41.1391 9.78324 41.1391 14.5167L41.1391 22.973V22.973C36.4056 22.973 32.5684 19.1357 32.5684 14.4022L32.5684 5.94598Z" fill="white"/>
<path d="M24.8547 40C22.488 40 20.5693 38.0942 20.5693 35.7432L20.5693 5.94598L24.8547 5.94598C27.2215 5.94598 29.1401 7.85179 29.1401 10.2027L29.1401 40L24.8547 40Z" fill="#15F42C"/>
<path d="M13.7989 40C8.91795 40 6.47746 40 4.61985 39.0415C3.05447 38.2338 1.77811 36.9659 0.964951 35.411C-2.81649e-07 33.5658 -3.87764e-07 31.1416 -5.99995e-07 26.2933L-1.49067e-06 5.94598L3.34259 5.94598C8.22355 5.94598 10.664 5.94598 12.5216 6.90448C14.087 7.71221 15.3634 8.98004 16.1766 10.535C17.1415 12.3802 17.1415 14.8044 17.1415 19.6527L17.1415 40L13.7989 40Z" fill="#15F42C"/>
</svg>
